<svg width="24.000000" height="24.000000" viewBox="0 0 24 24" fill="none" xmlns="http://www.w3.org/2000/svg" xmlns:xlink="http://www.w3.org/1999/xlink">
	<desc>
			Created with Pixso.
	</desc>
	<defs/>
	<path id="Combined-Shape" d="M11.63 0C12.23 0 12.75 0.47 12.75 1.12L12.75 3.4C12.75 4.12 12.51 4.83 12.11 5.43C12.51 6.04 12.75 6.76 12.75 7.47L12.75 9.07C12.75 9.68 12.27 10.2 11.63 10.2C9.99 10.2 8.55 9.07 8.11 7.52C7.67 7.68 7.27 8 6.87 8.43C6.59 8.8 6.51 9.31 6.75 9.76C6.99 10.2 7.39 10.48 7.91 10.48C8.15 10.48 8.31 10.64 8.31 10.88C8.31 11.12 8.15 11.28 7.91 11.28C7.11 11.28 6.39 10.84 6.03 10.12C5.67 9.4 5.79 8.56 6.27 7.92C6.95 7.19 7.59 6.76 8.35 6.59C8.47 6.56 8.59 6.56 8.67 6.64C8.75 6.71 8.83 6.8 8.83 6.92C9.03 8.35 10.23 9.4 11.67 9.4C11.83 9.4 11.99 9.23 11.99 9.07L11.99 7.47C11.99 6.83 11.75 6.19 11.35 5.71C11.23 5.56 11.23 5.35 11.35 5.19C11.75 4.71 11.99 4.07 11.99 3.43L11.99 1.12C11.99 0.95 11.83 0.8 11.67 0.8C10.07 0.8 8.79 2.11 8.79 3.68C8.79 4.04 8.39 4.07 8.23 4.07C6.23 4.23 4.51 5 3.11 6.4C1.07 8.4 0.31 11.28 1.03 14C1.75 16.79 3.87 18.92 6.63 19.64C6.75 19.68 6.87 19.76 6.91 19.87C6.95 20 6.95 20.12 6.87 20.24C6.07 21.4 5.31 21.96 4.63 22.48L4.51 22.6C4.31 22.72 4.35 22.88 4.39 22.96C4.43 23.04 4.51 23.2 4.71 23.2C7.35 23.2 9.83 22.04 11.51 20.04C11.59 19.92 11.71 19.87 11.83 19.87L13.71 19.92C18.47 19.92 22.55 16.4 23.19 11.64C23.19 11.52 23.15 11.43 23.11 11.4C23.07 11.36 22.99 11.28 22.87 11.28L14.27 11.28C14.03 11.28 13.87 11.12 13.87 10.88C13.87 10.64 14.03 10.48 14.27 10.48L22.87 10.48C23.19 10.48 23.51 10.64 23.71 10.88C23.91 11.16 24.03 11.48 23.99 11.76C23.31 16.87 18.91 20.72 13.75 20.72L12.03 20.72C10.19 22.8 7.55 24 4.75 24C4.23 24 3.83 23.72 3.67 23.24C3.51 22.8 3.67 22.28 4.07 22L4.23 21.88C4.79 21.43 5.35 21.04 5.95 20.28C3.15 19.31 1.07 17.12 0.31 14.24C-0.53 11.2 0.31 8.04 2.55 5.8C4.03 4.31 5.87 3.47 7.99 3.28C8.15 1.43 9.75 0 11.63 0ZM19.35 12.76C19.91 12.76 20.39 13.24 20.39 13.8C20.39 14.36 19.91 14.8 19.35 14.84C18.79 14.84 18.31 14.36 18.31 13.8C18.31 13.24 18.79 12.76 19.35 12.76Z" fill="#3A5F56" fill-opacity="1.000000" fill-rule="nonzero"/>
</svg>
