<svg width="24.000000" height="21.000000" viewBox="0 0 24 21" fill="none" xmlns="http://www.w3.org/2000/svg" xmlns:xlink="http://www.w3.org/1999/xlink">
	<desc>
			Created with Pixso.
	</desc>
	<defs/>
	<path id="Combined-Shape" d="M12 0C18.08 0 23.24 3.5 24 8.1L24 8.29C24 8.33 23.96 8.33 23.96 8.37C23.92 8.37 23.92 8.41 23.92 8.45C23.92 8.45 23.92 8.49 23.88 8.49C23.84 8.49 23.84 8.53 23.8 8.53C23.76 8.57 23.76 8.57 23.72 8.57L20.96 8.57L20.96 20.21L21.76 20.21C22 20.21 22.16 20.37 22.16 20.6C22.16 20.84 22 21 21.76 21L14.96 21C14.72 21 14.56 20.84 14.56 20.6C14.56 20.37 14.72 20.21 14.96 20.21L15.92 20.21L15.92 8.57L8.2 8.57L8.2 20.17L9.08 20.17C9.31 20.17 9.47 20.33 9.47 20.56C9.47 20.8 9.31 20.96 9.08 20.96L2.28 20.96C2.03 20.96 1.88 20.8 1.88 20.56C1.88 20.33 2.03 20.17 2.28 20.17L3.16 20.17L3.16 8.53L0.19 8.53C0.16 8.53 0.11 8.49 0.11 8.49L0.1 8.48L0.08 8.45C0.08 8.41 0.03 8.41 0.03 8.37C0 8.33 0 8.33 0 8.29L0 8.1C0.75 3.5 5.92 0 12 0ZM7.39 8.57L4 8.57L4 20.21L7.39 20.21L7.39 8.57ZM20.12 8.57L16.71 8.57L16.71 20.21L20.12 20.21L20.12 8.57ZM12 0.78C6.52 0.78 1.84 3.77 0.88 7.78L23.12 7.78C22.16 3.77 17.48 0.78 12 0.78ZM14.32 4.6C14.56 4.6 14.72 4.75 14.72 4.99C14.72 5.23 14.56 5.38 14.32 5.38L9.72 5.38C9.47 5.38 9.31 5.23 9.31 4.99C9.31 4.75 9.47 4.6 9.72 4.6L14.32 4.6Z" fill="#3A5F56" fill-opacity="1.000000" fill-rule="nonzero"/>
</svg>
