<svg width="19.200012" height="10.000000" viewBox="0 0 19.2 10" fill="none" xmlns="http://www.w3.org/2000/svg" xmlns:xlink="http://www.w3.org/1999/xlink">
	<desc>
			Created with Pixso.
	</desc>
	<defs/>
	<path id="Path" d="M18.67 3.77L15.2 0.34C14.72 -0.11 13.97 -0.11 13.49 0.27C13.02 0.72 13.02 1.42 13.43 1.86L15.4 3.83L1.22 3.83C0.54 3.83 0 4.34 0 4.98C0 5.61 0.54 6.12 1.22 6.12L15.47 6.12L13.49 8.09C13.02 8.53 13.08 9.23 13.56 9.68C13.77 9.87 14.11 10 14.38 10C14.72 10 14.99 9.87 15.27 9.68L18.74 6.25C19.36 5.48 19.36 4.47 18.67 3.77Z" fill="#3A5F56" fill-opacity="1.000000" fill-rule="nonzero"/>
</svg>
