<svg width="17.000000" height="17.000000" viewBox="0 0 17 17" fill="none" xmlns="http://www.w3.org/2000/svg" xmlns:xlink="http://www.w3.org/1999/xlink">
	<desc>
			Created with Pixso.
	</desc>
	<defs/>
	<path id="Vector" d="M2.6 2L0 2L0 0L4.39 0L4.84 4L16 4L16 9.93L3.76 12.36L2.6 2ZM15.5 17C14.67 17 14 16.32 14 15.5C14 14.67 14.67 14 15.5 14C16.32 14 17 14.67 17 15.5C17 16.32 16.32 17 15.5 17ZM5.5 17C4.67 17 4 16.32 4 15.5C4 14.67 4.67 14 5.5 14C6.32 14 7 14.67 7 15.5C7 16.32 6.32 17 5.5 17Z" fill="#000000" fill-opacity="1.000000" fill-rule="nonzero"/>
</svg>
