<svg width="24.000000" height="24.000000" viewBox="0 0 24 24" fill="none" xmlns="http://www.w3.org/2000/svg" xmlns:xlink="http://www.w3.org/1999/xlink">
	<desc>
			Created with Pixso.
	</desc>
	<defs/>
	<path id="Path" d="M22.64 0L1.35 0C0.58 0 0 0.61 0 1.35L0 22.64C0 23.41 0.61 24 1.35 24L12.81 24L12.81 14.67L9.71 14.67L9.71 11.07L12.81 11.07L12.81 8.39C12.81 5.3 14.67 3.6 17.45 3.6C18.38 3.6 19.31 3.63 20.24 3.75L20.24 6.96L18.38 6.96C16.91 6.96 16.6 7.66 16.6 8.7L16.6 10.99L20.12 10.99L19.62 14.63L16.52 14.63L16.52 23.84L22.64 23.84C23.41 23.84 24 23.26 24 22.49L24 1.35C23.96 0.58 23.34 0 22.64 0Z" fill="#FFFFFF" fill-opacity="1.000000" fill-rule="nonzero"/>
</svg>
