<svg width="24.000000" height="21.000000" viewBox="0 0 24 21" fill="none" xmlns="http://www.w3.org/2000/svg" xmlns:xlink="http://www.w3.org/1999/xlink">
	<desc>
			Created with Pixso.
	</desc>
	<defs/>
	<path id="Combined-Shape" d="M22.59 8.47C22.99 8.47 23.35 8.63 23.63 8.91C23.91 9.18 24.03 9.53 23.99 9.93C23.75 12.56 22.55 15.03 20.63 16.91C19.91 17.66 19.07 18.25 18.19 18.76L18.19 19.15C18.19 20.17 17.35 21 16.31 21L7.68 21C6.64 21 5.8 20.17 5.8 19.15L5.8 18.76C2.52 16.91 0.36 13.62 0 9.93C-0.04 9.57 0.12 9.18 0.36 8.91C0.64 8.63 1 8.47 1.4 8.47L22.59 8.47ZM22.23 13.26L1.72 13.26C2.68 15.3 4.32 17.03 6.4 18.17C6.52 18.25 6.6 18.37 6.6 18.52L6.6 19.11C6.6 19.7 7.08 20.17 7.68 20.17L16.31 20.17C16.91 20.17 17.39 19.7 17.39 19.11L17.39 18.52C17.39 18.37 17.47 18.25 17.59 18.17C18.51 17.7 19.35 17.07 20.07 16.36C20.99 15.46 21.71 14.4 22.23 13.26ZM22.63 9.22L1.4 9.22C1.24 9.22 1.08 9.3 0.96 9.42C0.84 9.53 0.8 9.69 0.8 9.85C0.88 10.75 1.08 11.65 1.4 12.48L22.59 12.48C22.91 11.61 23.11 10.75 23.23 9.85C23.23 9.69 23.19 9.53 23.07 9.42C22.95 9.3 22.79 9.22 22.63 9.22ZM6.08 0C6.32 0 6.48 0.15 6.48 0.39L6.48 5.06C6.48 5.29 6.32 5.45 6.08 5.45C5.84 5.45 5.68 5.25 5.68 5.06L5.68 0.39C5.68 0.15 5.84 0 6.08 0ZM17.91 0C18.15 0 18.31 0.15 18.31 0.39L18.31 5.06C18.31 5.29 18.15 5.45 17.91 5.45C17.71 5.45 17.51 5.25 17.51 5.06L17.51 0.39C17.51 0.15 17.67 0 17.91 0ZM11.99 0C12.23 0 12.39 0.15 12.39 0.39L12.39 5.06C12.39 5.29 12.23 5.45 11.99 5.45C11.75 5.45 11.59 5.25 11.59 5.06L11.59 0.39C11.59 0.15 11.75 0 11.99 0Z" fill="#3A5F56" fill-opacity="1.000000" fill-rule="nonzero"/>
</svg>
