<svg width="23.999512" height="23.998535" viewBox="0 0 23.9995 23.9985" fill="none" xmlns="http://www.w3.org/2000/svg" xmlns:xlink="http://www.w3.org/1999/xlink">
	<desc>
			Created with Pixso.
	</desc>
	<defs/>
	<path id="Combined-Shape" d="M13.89 0C15.54 0 16.01 0.01 17.05 0.07C18.36 0.11 19.22 0.3 19.99 0.61C20.77 0.92 21.43 1.31 22.08 1.97C22.74 2.63 23.17 3.28 23.44 4.1C23.71 4.91 23.94 5.8 23.98 7.04C24.02 8.36 23.94 8.78 23.94 12.07L23.94 13.73C23.94 13.8 23.94 13.88 23.94 13.95L23.94 14.35C23.94 15.67 23.93 16.12 23.91 16.99C23.87 18.3 23.63 19.16 23.36 19.93C23.09 20.7 22.67 21.4 22.01 22.06C21.35 22.72 20.69 23.14 19.88 23.41C19.06 23.68 18.25 23.92 16.93 23.96C16.58 23.97 16.3 23.97 16.01 23.98L15.79 23.98C15.42 23.99 15.02 23.99 14.43 23.99L14.05 23.99C13.98 23.99 13.92 23.99 13.84 23.99L10.32 23.99C8.5 23.99 8.06 23.98 7.01 23.92C5.69 23.88 4.84 23.65 4.06 23.37C3.29 23.1 2.59 22.68 1.93 22.02C1.27 21.36 0.85 20.7 0.58 19.89C0.3 19.08 0.07 18.27 0.03 16.95C0.03 16.69 0.02 16.46 0.01 16.24L0.01 15.92C0 15.56 0 15.17 0 14.62L0 14.27C0 14.2 0 14.14 0 14.07L0 11.37C0 8.65 0.04 8.27 0.07 7.04C0.11 5.72 0.3 4.87 0.61 4.1C0.89 3.28 1.31 2.63 1.97 1.97C2.63 1.31 3.29 0.85 4.1 0.57C4.92 0.3 5.73 0.07 7.05 0.03C7.97 0.01 8.42 0 9.73 0L13.89 0ZM14.09 2.2L10.01 2.2C9.15 2.2 8.65 2.21 8.19 2.21L7.98 2.22C7.74 2.22 7.49 2.23 7.2 2.24C6 2.28 5.38 2.51 4.96 2.66C4.41 2.9 4.03 3.13 3.6 3.56C3.21 3.94 2.94 4.37 2.71 4.91C2.55 5.37 2.32 5.99 2.28 7.16C2.27 7.44 2.27 7.69 2.26 7.93L2.26 8.14C2.25 8.56 2.24 9.03 2.24 9.77L2.24 10.38C2.24 10.45 2.24 10.53 2.24 10.61L2.24 16.79C2.28 17.99 2.51 18.61 2.67 19.04C2.94 19.58 3.17 19.97 3.6 20.39C3.99 20.82 4.41 21.09 4.96 21.32C5.42 21.48 6.04 21.71 7.2 21.75C8.06 21.78 8.53 21.78 9.78 21.79L10.4 21.79C10.47 21.79 10.55 21.79 10.63 21.79L16.85 21.79C18.05 21.75 18.67 21.52 19.1 21.36C19.64 21.09 20.03 20.86 20.46 20.43C20.88 20.05 21.15 19.62 21.39 19.08C21.54 18.61 21.77 17.99 21.81 16.83C21.82 16.58 21.83 16.37 21.84 16.16L21.84 15.95C21.87 15.19 21.89 14.35 21.89 11.99L21.89 10.38C21.89 10.3 21.89 10.23 21.89 10.16L21.89 9.77C21.89 8.47 21.88 8.02 21.85 7.16C21.81 5.96 21.58 5.34 21.43 4.91C21.15 4.37 20.92 3.98 20.5 3.56C20.11 3.17 19.68 2.9 19.14 2.66C18.67 2.51 18.05 2.28 16.89 2.24C16.6 2.23 16.36 2.22 16.12 2.22L15.91 2.21C15.45 2.21 14.94 2.2 14.09 2.2ZM12.01 5.84C15.46 5.84 18.21 8.55 18.21 11.99C18.21 15.44 15.38 18.15 12.01 18.15C8.64 18.15 5.85 15.44 5.85 11.99C5.85 8.63 8.56 5.84 12.01 5.84ZM12.01 7.97C9.8 7.97 7.98 9.79 7.98 11.99C7.98 14.2 9.76 16.02 12.01 16.02C14.26 16.02 16.04 14.24 16.04 11.99C16.04 9.75 14.26 7.97 12.01 7.97ZM18.48 4.14C19.27 4.14 19.91 4.78 19.91 5.57C19.91 6.36 19.27 7 18.48 7C17.69 7 17.05 6.36 17.05 5.57C17.05 4.78 17.69 4.14 18.48 4.14Z" fill="#FFFFFF" fill-opacity="1.000000" fill-rule="nonzero"/>
</svg>
