<svg width="24.000000" height="24.000000" viewBox="0 0 24 24" fill="none" xmlns="http://www.w3.org/2000/svg" xmlns:xlink="http://www.w3.org/1999/xlink">
	<desc>
			Created with Pixso.
	</desc>
	<defs/>
	<path id="Shape" d="M22.32 0L1.75 0C0.77 0 0 0.77 0 1.74L0 22.25C0 23.18 0.77 24 1.75 24L22.24 24C23.21 24 23.99 23.22 23.99 22.25L23.99 1.7C24.07 0.77 23.29 0 22.32 0ZM7.11 20.39L3.57 20.39L3.57 8.98L7.11 8.98L7.11 20.39ZM5.32 7.39C4.16 7.39 3.26 6.46 3.26 5.34C3.26 4.21 4.2 3.29 5.32 3.29C6.45 3.29 7.38 4.21 7.38 5.34C7.38 6.46 6.53 7.39 5.32 7.39ZM20.53 20.39L16.99 20.39L16.99 14.86C16.99 13.54 16.95 11.8 15.12 11.8C13.26 11.8 12.98 13.27 12.98 14.74L12.98 20.39L9.45 20.39L9.45 8.98L12.91 8.98L12.91 10.56L12.95 10.56C13.45 9.63 14.58 8.7 16.33 8.7C19.95 8.7 20.61 11.03 20.61 14.2L20.61 20.39L20.53 20.39Z" fill="#FFFFFF" fill-opacity="1.000000" fill-rule="nonzero"/>
</svg>
