<svg width="160.000000" height="43.000000" viewBox="0 0 160 43" fill="none" xmlns="http://www.w3.org/2000/svg" xmlns:xlink="http://www.w3.org/1999/xlink">
	<desc>
			Created with Pixso.
	</desc>
	<defs/>
	<path id="Combined-Shape" d="M145.34 13.42C150.86 13.42 156.21 16.76 158.66 22.34C159.55 24.37 160 26.46 160 28.49C160 34.13 156.87 39.38 151.63 41.75C149.79 42.6 147.9 43 146 43C140.43 43 135.08 39.66 132.63 34.08C131.79 32.05 131.34 29.96 131.34 27.87C131.34 22.28 134.41 16.98 139.7 14.61C141.55 13.82 143.44 13.42 145.34 13.42ZM11.98 0C12.42 0 12.7 0.16 12.99 0.5L27.19 29.62L41.41 0.5C41.69 0.16 41.97 0 42.42 0L52.89 0C53.46 0 53.73 0.28 53.73 0.84L53.73 2.54C53.73 3.1 53.46 3.38 52.89 3.38C51.67 3.38 50.5 3.6 49.44 4.22L49.44 33.57C49.44 36.62 50.83 38.93 53.56 38.93C54.12 38.93 54.4 39.22 54.4 39.78L54.4 41.47C54.4 42.03 54.12 42.32 53.56 42.32L39.8 42.32C39.29 42.32 38.96 42.03 38.96 41.47L38.96 39.78C38.96 39.22 39.29 38.93 39.8 38.93C42.53 38.93 43.87 36.62 43.87 33.57L43.87 12.18L30.71 39.16C30.54 39.55 30.21 39.78 29.76 39.78L24.63 39.78C24.19 39.78 23.85 39.55 23.63 39.16L10.53 12.18L10.53 33.57C10.53 36.62 11.87 38.93 14.6 38.93C15.1 38.93 15.44 39.22 15.44 39.78L15.44 41.47C15.44 42.03 15.1 42.32 14.6 42.32L0.83 42.32C0.27 42.32 0 42.03 0 41.47L0 39.78C0 39.22 0.27 38.93 0.83 38.93C3.56 38.93 4.95 36.62 4.95 33.57L4.95 4.22C3.89 3.6 2.72 3.38 1.5 3.38C0.94 3.38 0.66 3.1 0.66 2.54L0.66 0.84C0.66 0.28 0.94 0 1.5 0L11.98 0ZM68.14 12.35C68.26 12.35 68.26 12.35 68.31 12.41L68.31 33.57C68.31 36.62 69.65 38.93 72.38 38.93L72.55 38.93C73.11 38.93 73.38 39.21 73.38 39.78L73.38 41.47C73.38 42.03 72.99 42.32 72.43 42.32L56.66 42.32C56.11 42.32 55.72 42.03 55.72 41.47L55.72 39.78C55.72 39.21 55.99 38.93 56.55 38.93L56.66 38.93C59.39 38.93 60.73 36.62 60.67 33.57L60.67 27.59C60.67 27.47 60.67 27.36 60.67 27.24L60.67 27.06C60.63 24.64 60.24 21.92 57.38 21.61C56.83 21.55 56.71 21.27 56.71 20.87L56.71 18.95C56.71 18.5 56.99 18.39 57.55 18.22C63.41 16.25 66.3 14.04 67.81 12.46C67.87 12.41 67.98 12.35 68.03 12.35L68.14 12.35ZM87.88 12.35C87.94 12.35 88 12.35 88 12.41L86.66 20.03C88.67 15.68 92.51 13.37 96.47 13.37C99.93 13.37 102.77 15.34 102.77 19.18C102.77 20.87 102.66 22.23 101.32 22.79L96.08 24.94C95.92 25.05 95.75 25.05 95.58 25.05C95.25 25.05 95.08 24.82 95.08 24.54C95.08 24.37 95.13 24.2 95.19 24.03C95.63 22.96 95.69 22 95.69 21.21C95.69 19.18 94.58 18.28 93.08 18.28C90.51 18.28 88.27 21.1 87.49 23.19L87.49 33.57C87.49 36.62 88.83 38.93 91.57 38.93L91.68 38.93C92.23 38.93 92.51 39.21 92.51 39.78L92.51 41.47C92.51 42.04 92.23 42.31 91.68 42.31L75.46 42.31C74.9 42.31 74.62 42.04 74.62 41.47L74.62 39.78C74.62 39.21 74.9 38.93 75.46 38.93L75.57 38.93C78.3 38.93 79.64 36.62 79.64 33.57L79.64 26.36L79.64 26.16L79.64 25.96C79.61 23.12 79.25 20.29 76.35 19.97C75.79 19.92 75.68 19.63 75.68 19.24L75.68 17.32C75.68 16.86 75.96 16.7 76.52 16.59C81.81 15.74 86.05 13.54 87.49 12.47C87.61 12.41 87.66 12.35 87.78 12.35L87.88 12.35ZM116.16 12.35C116.22 12.35 116.28 12.35 116.28 12.41L114.94 20.03C116.94 15.68 120.79 13.37 124.75 13.37C128.21 13.37 131.05 15.34 131.05 19.18C131.05 20.87 130.94 22.23 129.6 22.79L124.36 24.94C124.19 25.05 124.03 25.05 123.86 25.05C123.52 25.05 123.36 24.82 123.36 24.54C123.36 24.37 123.41 24.2 123.47 24.03C123.91 22.96 123.97 22 123.97 21.21C123.97 19.18 122.86 18.28 121.35 18.28C118.79 18.28 116.55 21.1 115.77 23.19L115.77 33.57C115.77 36.62 117.11 38.93 119.84 38.93L119.96 38.93C120.51 38.93 120.79 39.21 120.79 39.78L120.79 41.47C120.79 42.04 120.51 42.31 119.96 42.31L103.74 42.31C103.18 42.31 102.9 42.04 102.9 41.47L102.9 39.78C102.9 39.21 103.18 38.93 103.74 38.93L103.85 38.93C106.58 38.93 107.92 36.62 107.92 33.57L107.92 26.46L107.92 26.16C107.9 23.26 107.59 20.3 104.63 19.97C104.07 19.92 103.96 19.63 103.96 19.24L103.96 17.32C103.96 16.86 104.24 16.7 104.79 16.59C110.09 15.74 114.33 13.54 115.77 12.47C115.89 12.41 115.94 12.35 116.06 12.35L116.16 12.35ZM143.61 17.94C142.88 17.94 142.1 18.11 141.38 18.44C138.92 19.52 137.98 21.78 137.98 24.37C137.98 26.46 138.59 28.78 139.54 30.97C141.32 34.98 144.27 38.48 147.73 38.48C148.46 38.48 149.18 38.31 149.96 37.97C152.36 36.9 153.31 34.64 153.31 32.05C153.31 29.96 152.69 27.59 151.75 25.45C150.02 21.44 147 17.94 143.61 17.94ZM64.41 0.56C65.41 0.56 66.19 0.95 67.2 1.97C68.2 2.99 68.59 3.78 68.59 4.79C68.59 5.8 68.2 6.66 67.2 7.61C66.19 8.63 65.41 9.02 64.41 9.02C63.41 9.02 62.57 8.63 61.62 7.61C60.62 6.66 60.23 5.8 60.23 4.79C60.23 3.78 60.62 2.99 61.62 1.97C62.57 0.95 63.41 0.56 64.41 0.56Z" fill="#FFFFFF" fill-opacity="1.000000" fill-rule="evenodd"/>
</svg>
