<svg width="16.000000" height="24.000000" viewBox="0 0 16 24" fill="none" xmlns="http://www.w3.org/2000/svg" xmlns:xlink="http://www.w3.org/1999/xlink">
	<desc>
			Created with Pixso.
	</desc>
	<defs/>
	<path id="Shape" d="M15.87 15.04L11.91 8.19C11.91 8.16 11.91 8.16 11.91 8.12C11.91 8.07 11.96 8.07 12 8.07L12.73 8.07C13.06 8.07 13.38 7.88 13.55 7.59C13.71 7.31 13.67 6.95 13.47 6.68L8.65 0.35C8.49 0.11 8.24 0 7.92 0C7.59 0 7.34 0.11 7.18 0.35L2.45 6.68C2.24 6.95 2.2 7.31 2.37 7.59C2.53 7.88 2.82 8.07 3.18 8.07L4.37 8.07C4.41 8.07 4.41 8.07 4.45 8.12C4.45 8.16 4.45 8.16 4.45 8.19L0.12 15C-0.04 15.28 -0.04 15.6 0.08 15.88C0.25 16.16 0.53 16.31 0.86 16.31L7.55 16.31L7.55 23.6C7.55 23.84 7.71 24 7.96 24C8.2 24 8.37 23.84 8.37 23.6L8.37 16.36L15.1 16.36C15.42 16.36 15.71 16.2 15.87 15.92C16.04 15.64 16.04 15.31 15.87 15.04ZM15.14 15.52C15.14 15.56 15.1 15.56 15.06 15.56L0.82 15.56C0.78 15.56 0.78 15.56 0.74 15.52C0.74 15.48 0.74 15.48 0.74 15.43L5.06 8.64C5.22 8.35 5.22 8.04 5.1 7.76C4.94 7.47 4.65 7.31 4.33 7.31L3.14 7.31C3.1 7.31 3.1 7.31 3.06 7.28C3.06 7.23 3.06 7.23 3.06 7.19L7.88 0.83C7.88 0.8 7.92 0.8 7.92 0.8C7.92 0.8 7.96 0.8 8 0.83L12.77 7.16C12.77 7.19 12.81 7.19 12.77 7.23C12.77 7.28 12.73 7.28 12.69 7.28L11.96 7.28C11.63 7.28 11.34 7.43 11.18 7.71C11.02 8 11.02 8.31 11.18 8.59L15.14 15.43C15.18 15.43 15.18 15.48 15.14 15.52Z" fill="#3A5F56" fill-opacity="1.000000" fill-rule="nonzero"/>
</svg>
