<svg width="24.000000" height="16.000000" viewBox="0 0 24 16" fill="none" xmlns="http://www.w3.org/2000/svg" xmlns:xlink="http://www.w3.org/1999/xlink">
	<desc>
			Created with Pixso.
	</desc>
	<defs/>
	<path id="Combined-Shape" d="M5.08 7.21C6.4 7.21 7.67 7.76 8.59 8.66C9.03 9.1 9.4 9.61 9.64 10.16C10.24 9.73 11 9.45 11.84 9.45C12.8 9.45 13.64 9.77 14.28 10.32C15.04 8.47 16.87 7.21 18.95 7.21C20.31 7.21 21.56 7.72 22.52 8.66C23.48 9.61 24 10.83 24 12.17L24 13.99C24 15.09 23.08 16 21.96 16L2.03 16C0.91 16 0 15.09 0 13.99L0 12.33C0 10.95 0.55 9.61 1.56 8.63C2.52 7.72 3.76 7.17 5.08 7.21ZM11.84 10.2C10.2 10.2 8.88 11.5 8.88 13.12L8.88 15.21L14.8 15.21L14.8 13.12C14.8 11.54 13.48 10.2 11.84 10.2ZM5.12 7.96L5.08 7.96C4 7.96 2.96 8.39 2.15 9.18C1.28 10.04 0.79 11.19 0.79 12.33L0.79 13.99C0.79 14.66 1.35 15.21 2.03 15.21L2.03 15.17L8.12 15.17L8.12 13.08C8.12 12.17 8.47 11.31 9.03 10.67C8.84 10.12 8.52 9.61 8.08 9.18C7.28 8.39 6.23 7.96 5.12 7.96ZM18.92 8C17.04 8 15.4 9.18 14.88 10.95C15.32 11.54 15.6 12.29 15.6 13.12L15.6 15.21L21.96 15.21C22.64 15.21 23.2 14.66 23.2 13.99L23.16 13.99L23.16 12.17C23.16 11.07 22.72 10 21.92 9.22C21.12 8.43 20.04 8 18.92 8ZM11.88 3.98C13.04 3.98 13.96 4.88 13.96 6.02C13.96 7.17 13.04 8.07 11.88 8.07C10.72 8.07 9.79 7.17 9.79 6.02C9.79 4.88 10.72 3.98 11.88 3.98ZM11.88 4.8C11.16 4.8 10.6 5.35 10.6 6.06C10.6 6.77 11.16 7.33 11.88 7.33C12.6 7.33 13.16 6.77 13.16 6.06C13.16 5.35 12.6 4.8 11.88 4.8ZM5.03 0C6.59 0 7.88 1.26 7.88 2.79C7.88 4.33 6.59 5.59 5.03 5.59C3.47 5.59 2.2 4.33 2.2 2.79C2.2 1.26 3.47 0 5.03 0ZM18.95 0C20.52 0 21.8 1.26 21.8 2.79C21.8 4.33 20.52 5.59 18.95 5.59C17.4 5.59 16.12 4.33 16.12 2.79C16.12 1.26 17.4 0 18.95 0ZM5.03 0.78C3.91 0.78 3 1.69 3 2.79C3 3.9 3.91 4.8 5.03 4.8C6.15 4.8 7.08 3.9 7.08 2.79C7.08 1.69 6.15 0.78 5.03 0.78ZM18.95 0.78C17.84 0.78 16.92 1.69 16.92 2.79C16.92 3.9 17.84 4.8 18.95 4.8C20.08 4.8 21 3.9 21 2.79C21 1.69 20.08 0.78 18.95 0.78Z" fill="#3A5F56" fill-opacity="1.000000" fill-rule="nonzero"/>
</svg>
