<svg width="24.000000" height="24.000000" viewBox="0 0 24 24" fill="none" xmlns="http://www.w3.org/2000/svg" xmlns:xlink="http://www.w3.org/1999/xlink">
	<desc>
			Created with Pixso.
	</desc>
	<defs/>
	<path id="Shape" d="M23.75 0.98L23.63 0.62C23.59 0.5 23.48 0.38 23.36 0.34L23 0.22C22.92 0.18 21.28 -0.26 18.68 0.22C17.2 0.5 15.72 1.06 14.28 1.86C13.48 2.3 12.72 2.77 11.92 3.37C11.92 3.37 11.92 3.37 11.88 3.37C10.92 4.09 9.92 4.93 9 5.85C5.36 9.49 3.16 13.09 1.92 15.44C0.56 18.04 0.12 19.8 0.08 19.88L0 20.56C-0.04 20.76 0.04 20.96 0.28 21.04L2.32 21.72L3 23.76C3.04 23.88 3.2 24 3.36 24C3.4 24 3.44 24 3.48 24L4.08 23.84C4.16 23.84 5.92 23.36 8.52 22C10.4 21.04 13 19.48 15.8 17.08C16.56 16.44 17.32 15.72 18.12 14.96C19.8 13.29 21.16 11.53 22.12 9.73C22.92 8.29 23.44 6.77 23.75 5.33C24.27 2.69 23.79 1.06 23.75 0.98ZM9.64 6.45C10.4 5.69 11.2 5.01 11.96 4.37L15.08 16.6C13.08 18.32 11.16 19.56 9.56 20.48L6.8 9.61C7.64 8.57 8.56 7.53 9.64 6.45ZM8.16 21.28C5.64 22.6 3.96 23.04 3.88 23.04L3.6 23.12L3 21.28C2.96 21.16 2.88 21.08 2.76 21.04L0.88 20.4L0.96 20.16C0.96 20.08 1.44 18.4 2.72 15.88C3.48 14.44 4.6 12.53 6.16 10.45L8.84 20.92C8.6 21.04 8.36 21.16 8.16 21.28ZM23 5.13C22.72 6.53 22.2 7.93 21.44 9.29C20.52 11.01 19.2 12.73 17.56 14.36C16.96 14.96 16.36 15.52 15.8 16.04L12.68 3.89C13.36 3.41 14.04 2.97 14.72 2.62C16.12 1.86 17.52 1.34 18.88 1.06C20.68 0.7 21.92 0.86 22.48 0.98L20.72 2.73C20.56 2.89 20.56 3.13 20.72 3.29C20.8 3.37 20.92 3.41 21 3.41C21.08 3.41 21.2 3.37 21.28 3.29L23.04 1.54C23.2 2.06 23.32 3.33 23 5.13Z" fill="#3A5F56" fill-opacity="1.000000" fill-rule="nonzero"/>
</svg>
