<svg width="24.000000" height="19.664551" viewBox="0 0 24 19.6646" fill="none" xmlns="http://www.w3.org/2000/svg" xmlns:xlink="http://www.w3.org/1999/xlink">
	<desc>
			Created with Pixso.
	</desc>
	<defs/>
	<path id="Path" d="M7.47 19.66C16.6 19.66 21.56 12.11 21.56 5.57C21.56 5.41 21.56 5.14 21.52 4.91C22.49 4.21 23.34 3.32 24 2.36C23.07 2.78 22.14 3.01 21.17 3.13C22.21 2.51 22.99 1.54 23.34 0.38C22.37 0.92 21.36 1.35 20.16 1.58C19.23 0.61 18 0 16.56 0C13.81 0 11.57 2.24 11.57 4.99C11.57 5.38 11.61 5.76 11.69 6.15C7.7 5.88 4.06 3.9 1.58 0.92C1.16 1.7 0.92 2.51 0.92 3.4C0.92 5.14 1.81 6.61 3.17 7.5C2.36 7.47 1.58 7.23 0.92 6.89C0.92 6.92 0.92 6.92 0.92 6.92C0.92 9.29 2.63 11.34 4.87 11.8C4.45 11.92 3.98 11.96 3.63 11.96C3.32 11.96 2.98 11.92 2.7 11.84C3.36 13.81 5.18 15.25 7.35 15.29C5.65 16.6 3.52 17.41 1.23 17.41C0.77 17.49 0.38 17.41 0 17.38C2.09 18.85 4.68 19.66 7.47 19.66Z" fill="#FFFFFF" fill-opacity="1.000000" fill-rule="nonzero"/>
</svg>
