<svg width="160.000000" height="19.000000" viewBox="0 0 160 19" fill="none" xmlns="http://www.w3.org/2000/svg" xmlns:xlink="http://www.w3.org/1999/xlink">
	<desc>
			Created with Pixso.
	</desc>
	<defs/>
	<path id="Fill-1" d="M159.17 19C158.95 19 158.74 18.91 158.58 18.76L141.57 1.97L124.56 18.76C124.25 19.06 123.7 19.06 123.39 18.76L106.39 1.97L89.38 18.76C89.07 19.06 88.52 19.06 88.21 18.76L71.2 1.97L54.19 18.76C53.88 19.06 53.33 19.06 53.02 18.76L36.01 1.97L19 18.76C18.69 19.06 18.14 19.06 17.83 18.76L0.24 1.39C-0.09 1.07 -0.09 0.55 0.24 0.24C0.56 -0.09 1.09 -0.09 1.41 0.24L18.42 17.02L35.42 0.24C35.75 -0.09 36.27 -0.09 36.6 0.24L53.61 17.02L70.61 0.24C70.92 -0.07 71.47 -0.07 71.78 0.24L88.79 17.02L105.8 0.24C106.11 -0.07 106.66 -0.07 106.97 0.24L123.98 17.02L140.99 0.24C141.3 -0.07 141.85 -0.07 142.16 0.24L159.75 17.6C160.08 17.92 160.08 18.44 159.75 18.76C159.59 18.91 159.38 19 159.17 19Z" fill="#000000" fill-opacity="1.000000" fill-rule="evenodd"/>
</svg>
