<svg width="19.000000" height="24.000000" viewBox="0 0 19 24" fill="none" xmlns="http://www.w3.org/2000/svg" xmlns:xlink="http://www.w3.org/1999/xlink">
	<desc>
			Created with Pixso.
	</desc>
	<defs/>
	<path id="Shape" d="M11.52 5.47L12.86 3.19C12.95 3.07 12.95 2.92 12.86 2.8L11.36 0.19C11.28 0.07 11.16 0 11 0L7.95 0C7.79 0 7.67 0.07 7.59 0.19L6.13 2.8C6.04 2.92 6.04 3.07 6.13 3.19L7.47 5.47C3.2 6.4 0 10.16 0 14.64C0 19.79 4.26 24 9.5 24C14.73 24 19 19.79 19 14.64C19 10.16 15.79 6.4 11.52 5.47ZM8.24 0.8L10.79 0.8L12.05 3L10.79 5.19L8.24 5.19L6.98 3L8.24 0.8ZM9.5 23.2C4.7 23.2 0.81 19.36 0.81 14.64C0.81 9.92 4.7 6.07 9.5 6.07C14.29 6.07 18.18 9.92 18.18 14.64C18.18 19.36 14.29 23.2 9.5 23.2Z" fill="#3A5F56" fill-opacity="1.000000" fill-rule="nonzero"/>
</svg>
